C:\Users\r0593348\3dpredictsim\Results\Batchsim_tmt_linear_v2\Pog_s1_tmt_bCst_d00_k250_ig24_act_GRF.mot
nRows=17
nColumns=19

name C:\Users\r0593348\3dpredictsim\Results\Batchsim_tmt_linear_v2\Pog_s1_tmt_bCst_d00_k250_ig24_act_GRF.mot
datacolumns 19
datarows 17
range 0.0000000000 0.1692897625
endheader
time 	ground_force_vx	ground_force_vy	ground_force_vz	ground_force_px	ground_force_py	ground_force_pz	1_ground_force_vx	1_ground_force_vy	1_ground_force_vz	1_ground_force_px	1_ground_force_py	1_ground_force_pz	ground_torque_x	ground_torque_y	ground_torque_z	1_ground_torque_x	1_ground_torque_y	1_ground_torque_z
        0.0000000000	      -55.7451518208	       43.5225317307	        5.5544370274	        0.3034787113	        0.0000000000	        0.0451724134	       17.1706609113	      287.4244206436	      -10.9218109024	       -0.3246587326	        0.0000000000	       -0.0450408284	        0.0000000000	        0.0000000000	        0.0000000000	        0.0000000000	        0.0000000000	        0.0000000000	
        0.0105806102	     -118.6514568123	      106.8498758980	       15.0039554517	        0.2989965982	        0.0000000000	        0.0466230653	       24.3989548659	      259.5681279308	      -11.1455303215	       -0.3241948814	        0.0000000000	       -0.0450338064	        0.0000000000	        0.0000000000	        0.0000000000	        0.0000000000	        0.0000000000	        0.0000000000	
        0.0211612203	     -176.3774732815	      239.4605987644	       20.7825565870	        0.2692026543	        0.0000000000	        0.0527660216	       31.1712762410	      223.7068665611	      -13.7499284464	       -0.3236093613	        0.0000000000	       -0.0451646350	        0.0000000000	        0.0000000000	        0.0000000000	        0.0000000000	        0.0000000000	        0.0000000000	
        0.0317418305	     -102.9386141609	      462.1789984069	       -4.6393579321	        0.2282625893	        0.0000000000	        0.0603179043	       31.6725817917	      181.4727371049	      -16.3479682306	       -0.3232427378	        0.0000000000	       -0.0453668365	        0.0000000000	        0.0000000000	        0.0000000000	        0.0000000000	        0.0000000000	        0.0000000000	
        0.0423224406	     -122.7613727507	      702.3972004563	      -25.0827640389	        0.2167138512	        0.0000000000	        0.0621123195	       24.0422391171	      130.6393998313	      -17.3820624153	       -0.3232296959	        0.0000000000	       -0.0456420578	        0.0000000000	        0.0000000000	        0.0000000000	        0.0000000000	        0.0000000000	        0.0000000000	
        0.0529030508	     -130.5726489645	      844.1865174624	      -28.4845370272	        0.2108272940	        0.0000000000	        0.0626803794	        7.8716480591	       67.3706014842	      -13.8214775625	       -0.3239632917	        0.0000000000	       -0.0460489776	        0.0000000000	        0.0000000000	        0.0000000000	        0.0000000000	        0.0000000000	        0.0000000000	
        0.0634836609	     -131.2536002631	      944.1721770375	      -26.7797974106	        0.2061111350	        0.0000000000	        0.0629638984	       -9.5993517708	       14.3680512250	       -5.0191518162	       -0.3308438668	        0.0000000000	       -0.0467482559	        0.0000000000	        0.0000000000	        0.0000000000	        0.0000000000	        0.0000000000	        0.0000000000	
        0.0740642711	     -124.6815794963	      976.4514506998	      -21.8000635738	        0.2031406161	        0.0000000000	        0.0628657133	      -14.8179253601	       12.8550068745	       -0.9673746033	       -0.3279952019	        0.0000000000	       -0.0435079002	        0.0000000000	        0.0000000000	        0.0000000000	        0.0000000000	        0.0000000000	        0.0000000000	
        0.0846448812	     -113.0831923526	      967.5126291106	      -18.4333920159	        0.2013728855	        0.0000000000	        0.0625242661	      -19.6243418235	       14.4686058221	       -0.4489240722	       -0.3167770403	        0.0000000000	       -0.0430432737	        0.0000000000	        0.0000000000	        0.0000000000	        0.0000000000	        0.0000000000	        0.0000000000	
        0.0952254914	      -98.9741619247	      940.7212329135	      -18.1570360333	        0.2005845673	        0.0000000000	        0.0620725495	      -21.0120368991	       13.7429587041	       -0.2345827815	       -0.3012252887	        0.0000000000	       -0.0429245532	        0.0000000000	        0.0000000000	        0.0000000000	        0.0000000000	        0.0000000000	        0.0000000000	
        0.1058061016	      -86.4876998475	      902.2714925777	      -19.6597681655	        0.2013620281	        0.0000000000	        0.0617188410	      -19.9398007676	       11.8259508055	        0.0456109188	       -0.2821570822	        0.0000000000	       -0.0428811585	        0.0000000000	        0.0000000000	        0.0000000000	        0.0000000000	        0.0000000000	        0.0000000000	
        0.1163867117	      -75.0776027432	      860.5434593396	      -20.5800450842	        0.2033555044	        0.0000000000	        0.0614851476	      -15.6896466021	        8.5930560283	        0.1622603750	        0.0000000000	        0.0000000000	        0.0000000000	        0.0000000000	        0.0000000000	        0.0000000000	        0.0000000000	        0.0000000000	        0.0000000000	
        0.1269673219	      -65.0219823377	      822.6475147350	      -20.8369776591	        0.2060266550	        0.0000000000	        0.0613134344	      -10.2004866046	        5.2826558358	        0.0975146485	        0.0000000000	        0.0000000000	        0.0000000000	        0.0000000000	        0.0000000000	        0.0000000000	        0.0000000000	        0.0000000000	        0.0000000000	
        0.1375479320	      -55.8471457637	      790.5723232099	      -21.0309515298	        0.2088294947	        0.0000000000	        0.0611474765	       -6.1819956595	        3.0376298951	        0.0765364562	        0.0000000000	        0.0000000000	        0.0000000000	        0.0000000000	        0.0000000000	        0.0000000000	        0.0000000000	        0.0000000000	        0.0000000000	
        0.1481285422	      -47.0826471348	      762.8597114952	      -21.7889982758	        0.2113700490	        0.0000000000	        0.0609537728	       -4.2201457192	        1.9872464535	        0.0621922736	        0.0000000000	        0.0000000000	        0.0000000000	        0.0000000000	        0.0000000000	        0.0000000000	        0.0000000000	        0.0000000000	        0.0000000000	
        0.1587091523	      -39.8154770050	      737.8058474543	      -22.4800945423	        0.2135576599	        0.0000000000	        0.0607578141	       -3.1565753654	        1.4378399392	        0.0462201809	        0.0000000000	        0.0000000000	        0.0000000000	        0.0000000000	        0.0000000000	        0.0000000000	        0.0000000000	        0.0000000000	        0.0000000000	
        0.1692897625	      -33.4165281992	      712.9949299804	      -23.0878503384	        0.2155799577	        0.0000000000	        0.0605884563	       -2.3156540205	        1.0239774169	        0.0327488391	        0.0000000000	        0.0000000000	        0.0000000000	        0.0000000000	        0.0000000000	        0.0000000000	        0.0000000000	        0.0000000000	        0.0000000000	
